<svg xmlns="http://www.w3.org/2000/svg" viewBox="0 0 800 600" fill="none">
  <defs>
    <linearGradient id="puzzleGrad1" x1="0%" y1="0%" x2="100%" y2="100%">
      <stop offset="0%" stop-color="#8b5cf6" stop-opacity="0.4"/>
      <stop offset="100%" stop-color="#06b6d4" stop-opacity="0.2"/>
    </linearGradient>
    <linearGradient id="puzzleGrad2" x1="100%" y1="0%" x2="0%" y2="100%">
      <stop offset="0%" stop-color="#06b6d4" stop-opacity="0.3"/>
      <stop offset="100%" stop-color="#8b5cf6" stop-opacity="0.15"/>
    </linearGradient>
  </defs>
  
  <g stroke="url(#puzzleGrad1)" stroke-width="1.5" fill="none">
    <path d="M120 80 L200 80 C200 80 210 60 230 60 C250 60 260 80 260 80 L340 80 L340 160 C340 160 360 170 360 190 C360 210 340 220 340 220 L340 300 L260 300 C260 300 250 320 230 320 C210 320 200 300 200 300 L120 300 L120 220 C120 220 100 210 100 190 C100 170 120 160 120 160 Z"/>
    
    <path d="M340 80 L420 80 C420 80 430 60 450 60 C470 60 480 80 480 80 L560 80 L560 160 C560 160 580 170 580 190 C580 210 560 220 560 220 L560 300 L480 300 C480 300 470 320 450 320 C430 320 420 300 420 300 L340 300"/>
    
    <path d="M560 80 L640 80 C640 80 650 60 670 60 C690 60 700 80 700 80 L760 80 L760 160 C760 160 780 170 780 190 C780 210 760 220 760 220 L760 300 L700 300 C700 300 690 320 670 320 C650 320 640 300 640 300 L560 300"/>
  </g>
  
  <g stroke="url(#puzzleGrad2)" stroke-width="1.5" fill="none">
    <path d="M120 300 L200 300 C200 300 210 280 230 280 C250 280 260 300 260 300 L340 300 L340 380 C340 380 360 390 360 410 C360 430 340 440 340 440 L340 520 L260 520 C260 520 250 540 230 540 C210 540 200 520 200 520 L120 520 L120 440 C120 440 100 430 100 410 C100 390 120 380 120 380 Z"/>
    
    <path d="M340 300 L420 300 C420 300 430 280 450 280 C470 280 480 300 480 300 L560 300 L560 380 C560 380 580 390 580 410 C580 430 560 440 560 440 L560 520 L480 520 C480 520 470 540 450 540 C430 540 420 520 420 520 L340 520"/>
    
    <path d="M560 300 L640 300 C640 300 650 280 670 280 C690 280 700 300 700 300 L760 300 L760 380 C760 380 780 390 780 410 C780 430 760 440 760 440 L760 520 L700 520 C700 520 690 540 670 540 C650 540 640 520 640 520 L560 520"/>
  </g>
  
  <g stroke="url(#puzzleGrad1)" stroke-width="1" fill="none" opacity="0.5">
    <path d="M40 150 L80 150 C80 150 85 140 95 140 C105 140 110 150 110 150 L150 150 L150 190 C150 190 160 195 160 205 C160 215 150 220 150 220 L150 260 L110 260 C110 260 105 270 95 270 C85 270 80 260 80 260 L40 260 L40 220 C40 220 30 215 30 205 C30 195 40 190 40 190 Z"/>
    
    <path d="M650 400 L690 400 C690 400 695 390 705 390 C715 390 720 400 720 400 L760 400 L760 440 C760 440 770 445 770 455 C770 465 760 470 760 470 L760 510 L720 510 C720 510 715 520 705 520 C695 520 690 510 690 510 L650 510 L650 470 C650 470 640 465 640 455 C640 445 650 440 650 440 Z"/>
  </g>
</svg>
